:SAMPLES-PER-SECOND 30
:FULLY-SPECIFIED
:DEGREES
78
root  23.3762 39.9737 -1.34773 -160 -84.7146 153.637
RightUpLeg  -20.9996 -2.29094 -4.85142
RightLeg  40.3168 -3.73602 -3.66808
RightFoot  4.79436 -0.805919 5.92044
RightToes  1.74622e-010 0 -3.6325e-017
Spine  9.20458 -1.60248 -1.86091
Spine1  11.1441 -2.27247 0.584164
HEad  -4.32762 6.15215 -6.15536
LeftShoulder1  8.71518 -12.2942 -48.1528
LeftArm  -1.58971 12.7691 -27.8053
LeftForeArm  21.1699 -21.2534 -3.96141
LeftHand  -0.244104 0.0205437 5.32207
RightShoulder  6.7634 10.3353 42.5645
RightArm  1.2008 -15.5763 30.5763
RightForeArm  8.11378 10.1393 8.26083
RightHand  -0.755388 0.823438 -14.195
LeftUpLeg  4.56238 4.831 -3.7284
LeftLeg  10.1659 14.2007 -3.11327
LeftFoot  -10.9737 0.0503323 4.46701
LeftToes  1.00041e-010 1.90862e-010 2.54823e-011
79
root  21.8907 39.7457 -1.36485 -152.907 -84.9722 146.36
RightUpLeg  -20.5215 -5.55618 -4.35873
RightLeg  27.2956 -2.51343 -1.8425
RightFoot  4.03483 -0.91306 6.9532
RightToes  1.74622e-010 0 -3.6325e-017
Spine  9.09486 -1.79003 -2.94712
Spine1  11.389 -2.71773 1.23327
HEad  -4.4676 5.94037 -5.27392
LeftShoulder1  8.66906 -12.2518 -48.0249
LeftArm  -1.89273 11.0055 -27.4168
LeftForeArm  21.7876 -23.8037 -3.92815
LeftHand  -0.244104 0.0205437 5.32207
RightShoulder  6.62954 10.1634 42.2251
RightArm  0.255459 -17.9762 29.7845
RightForeArm  7.52459 10.568 7.95377
RightHand  -0.796865 1.06805 -14.4163
LeftUpLeg  6.81208 5.04027 -4.13329
LeftLeg  11.2121 13.5139 -3.00688
LeftFoot  -13.8445 0.167859 3.81027
LeftToes  1.00041e-010 1.90862e-010 2.54823e-011
80
root  20.3424 39.5589 -1.39666 -143.002 -85.2384 136.635
RightUpLeg  -19.3251 -8.77971 -3.9705
RightLeg  12.7534 -0.138021 0.574541
RightFoot  4.11855 -0.96458 7.29871
RightToes  1.74622e-010 0 -3.6325e-017
Spine  8.24361 -2.03823 -3.71923
Spine1  11.8905 -3.14218 1.94322
HEad  -4.39414 5.61789 -4.35195
LeftShoulder1  8.59806 -12.2006 -47.7839
LeftArm  -3.07943 9.35485 -26.9402
LeftForeArm  23.1023 -25.7943 -4.29918
LeftHand  -0.244104 0.0205437 5.32207
RightShoulder  6.52024 10.0113 41.9806
RightArm  -1.83382 -19.7432 29.2775
RightForeArm  8.2324 9.48129 7.74662
RightHand  -0.827832 1.20552 -14.6685
LeftUpLeg  9.33854 5.01901 -4.56666
LeftLeg  10.99 12.7383 -3.18732
LeftFoot  -15.6804 0.228552 3.53232
LeftToes  1.00041e-010 1.90862e-010 2.54823e-011
81
root  18.7358 39.3014 -1.46204 -130.7 -85.3841 124.493
RightUpLeg  -17.783 -6.82268 -5.75606
RightLeg  0.0245862 -1.60074 3.51713
RightFoot  3.07763 -0.996481 8.07266
RightToes  1.74622e-010 0 -3.6325e-017
Spine  7.41774 -2.26833 -4.38816
Spine1  12.1115 -3.49924 2.53981
HEad  -4.28575 5.23138 -3.54726
LeftShoulder1  8.55401 -12.1769 -47.6082
LeftArm  -4.14634 8.00787 -26.4244
LeftForeArm  23.85 -27.291 -4.58996
LeftHand  -0.244104 0.0205437 5.32207
RightShoulder  6.46987 9.91619 41.9492
RightArm  -3.99036 -21.07 28.8184
RightForeArm  9.04779 7.46168 7.42125
RightHand  -0.814867 1.10943 -14.6459
LeftUpLeg  12.0292 5.18466 -4.75688
LeftLeg  10.7435 11.4157 -3.55211
LeftFoot  -17.7676 0.26704 2.90088
LeftToes  1.00041e-010 1.90862e-010 2.54823e-011
82
root  17.0446 38.8919 -1.56944 -121.057 -85.3532 114.691
RightUpLeg  -17.7638 -7.06755 -6.14772
RightLeg  -5.02961 -0.968036 4.5047
RightFoot  0.544052 -0.977154 9.35629
RightToes  1.74622e-010 0 -3.6325e-017
Spine  7.02635 -2.37578 -4.7151
Spine1  11.9434 -3.5923 2.72937
HEad  -4.5391 4.79189 -2.95628
LeftShoulder1  8.5449 -12.1907 -47.5143
LeftArm  -5.35275 6.94359 -26.056
LeftForeArm  24.2498 -28.3196 -4.79899
LeftHand  -0.244104 0.0205437 5.32207
RightShoulder  6.48263 9.90923 42.0611
RightArm  -5.56028 -22.0301 28.4385
RightForeArm  9.81305 5.38114 6.82404
RightHand  -0.779743 0.956125 -14.3516
LeftUpLeg  14.7969 5.95313 -4.43635
LeftLeg  11.5825 9.57487 -3.72206
LeftFoot  -20.6344 0.272486 1.81677
LeftToes  1.00041e-010 1.90862e-010 2.54823e-011
83
root  15.3709 38.5599 -1.68597 -118.464 -85.8046 112.057
RightUpLeg  -18.5244 -6.791 -5.46825
RightLeg  -3.4163 -3.51907 4.69262
RightFoot  0.472373 -0.855391 8.32665
RightToes  1.74622e-010 0 -3.6325e-017
Spine  6.9471 -2.39816 -3.80748
Spine1  11.9005 -3.6411 2.88615
HEad  -5.24109 4.42055 -2.69061
LeftShoulder1  8.54592 -12.196 -47.5038
LeftArm  -6.87551 6.32083 -25.8971
LeftForeArm  24.4269 -29.0496 -4.95581
LeftHand  -0.244104 0.0205437 5.32207
RightShoulder  6.52588 9.95037 42.2229
RightArm  -6.88066 -22.4645 28.1305
RightForeArm  10.6629 3.66023 6.23155
RightHand  -0.768053 0.911117 -14.2368
LeftUpLeg  17.4029 7.43691 -3.21682
LeftLeg  12.4683 7.41391 -3.26454
LeftFoot  -22.2635 0.234678 1.04885
LeftToes  1.00041e-010 1.90862e-010 2.54823e-011
84
root  13.6419 38.3226 -1.82704 -114.89 -86.9501 108.588
RightUpLeg  -20.029 -6.97717 -3.88149
RightLeg  2.88713 -7.18359 3.80497
RightFoot  3.95806 -0.579937 4.61813
RightToes  1.74622e-010 0 -3.6325e-017
Spine  6.74135 -2.69539 -2.10978
Spine1  11.9012 -3.96803 2.99219
HEad  -6.04871 4.26996 -2.83024
LeftShoulder1  8.56946 -12.1616 -47.7427
LeftArm  -8.42533 6.43397 -25.7023
LeftForeArm  24.4301 -29.6066 -5.08425
LeftHand  -0.244104 0.0205437 5.32207
RightShoulder  6.58341 9.96679 42.565
RightArm  -7.67305 -22.3201 27.6564
RightForeArm  10.7304 2.58663 5.87812
RightHand  -0.790593 0.97086 -14.5146
LeftUpLeg  19.4062 9.75568 -1.01497
LeftLeg  14.3795 4.03382 -1.89675
LeftFoot  -22.7178 0.102419 -0.308645
LeftToes  1.00041e-010 1.90862e-010 2.54823e-011
85
root  11.8104 38.1658 -1.98775 -84.1517 -88.6421 77.7089
RightUpLeg  -21.6877 -10.2901 -0.460755
RightLeg  10.4323 -5.33428 1.52684
RightFoot  8.42819 0.0164429 0.225245
RightToes  1.74622e-010 0 -3.6325e-017
Spine  6.50599 -3.18319 0.577113
Spine1  11.7871 -4.27405 2.64898
HEad  -6.53932 4.32569 -3.31423
LeftShoulder1  8.63403 -12.1034 -48.2877
LeftArm  -9.56544 7.41468 -25.3937
LeftForeArm  24.4648 -29.9347 -5.15878
LeftHand  -0.244104 0.0205437 5.32207
RightShoulder  6.6619 9.95887 43.1311
RightArm  -7.97581 -21.8044 27.0154
RightForeArm  10.1044 2.32915 5.79302
RightHand  -0.816719 1.08099 -14.7425
LeftUpLeg  20.9983 11.6406 2.05086
LeftLeg  17.6174 0.250719 -0.463643
LeftFoot  -22.3006 -0.267548 -4.21125
LeftToes  1.00041e-010 1.90862e-010 2.54823e-011
86
root  9.95678 38.1449 -2.16326 159.392 -89.4039 -166.222
RightUpLeg  -22.581 -12.8625 3.28804
RightLeg  16.834 -1.26799 -0.177081
RightFoot  9.57016 0.723063 -3.628
RightToes  1.74622e-010 0 -3.6325e-017
Spine  6.42437 -3.38124 4.27247
Spine1  11.6785 -3.99929 1.78173
HEad  -6.50615 4.42171 -3.92282
LeftShoulder1  8.69452 -12.033 -48.8494
LeftArm  -10.1453 9.16151 -25.309
LeftForeArm  24.6159 -29.9954 -5.16464
LeftHand  -0.244104 0.0205437 5.32207
RightShoulder  6.7421 9.99228 43.5663
RightArm  -8.20198 -21.0142 26.7755
RightForeArm  9.61629 2.69228 5.81632
RightHand  -0.813871 1.16128 -14.5174
LeftUpLeg  21.3268 10.9993 4.82371
LeftLeg  22.8479 -0.4711 0.238709
LeftFoot  -18.9161 -0.51219 -9.81487
LeftToes  1.00041e-010 1.90862e-010 2.54823e-011
87
root  8.14738 38.1986 -2.37565 99.0822 -87.7755 -106.098
RightUpLeg  -22.2331 -11.9004 5.17566
RightLeg  21.9963 -1.16096 -0.809759
RightFoot  6.40033 1.002 -6.12341
RightToes  1.74622e-010 0 -3.6325e-017
Spine  6.22322 -3.24396 7.70944
Spine1  11.5227 -3.28822 0.931221
HEad  -6.05317 4.31985 -4.36459
LeftShoulder1  8.70724 -11.968 -49.1262
LeftArm  -10.0582 11.3019 -25.6687
LeftForeArm  24.5791 -29.8567 -5.13426
LeftHand  -0.244104 0.0205437 5.32207
RightShoulder  6.7792 10.0695 43.5562
RightArm  -8.41538 -19.6837 27.3717
RightForeArm  9.34988 3.33413 5.90678
RightHand  -0.796812 1.17186 -14.1981
LeftUpLeg  18.3527 9.43681 6.86724
LeftLeg  32.1764 1.1264 1.15538
LeftFoot  -9.74491 0.207209 -12.7687
LeftToes  1.00041e-010 1.90862e-010 2.54823e-011
88
root  6.50352 38.2517 -2.60907 88.5732 -86.3457 -95.3284
RightUpLeg  -21.1529 -11.9915 6.53023
RightLeg  25.3017 -2.07578 -1.29763
RightFoot  1.90381 0.77799 -6.53267
RightToes  1.74622e-010 0 -3.6325e-017
Spine  5.85561 -3.20718 10.3808
Spine1  11.3226 -2.77036 0.644089
HEad  -5.57827 3.72431 -4.41379
LeftShoulder1  8.72659 -11.9816 -49.1923
LeftArm  -9.04361 13.1522 -26.2107
LeftForeArm  24.1843 -29.4764 -5.06768
LeftHand  -0.244104 0.0205437 5.32207
RightShoulder  6.76846 10.1102 43.3462
RightArm  -8.10038 -17.4926 28.3627
RightForeArm  8.65353 4.33454 6.23755
RightHand  -0.820466 1.27597 -14.389
LeftUpLeg  11.6836 7.36524 8.25641
LeftLeg  44.1952 2.56351 3.06638
LeftFoot  3.84713 1.36383 -10.6275
LeftToes  1.00041e-010 1.90862e-010 2.54823e-011
